<svg fill="none" version="1.1" id="Capa_1" xmlns="http://www.w3.org/2000/svg" xmlns:xlink="http://www.w3.org/1999/xlink" viewBox="0 0 26.511 26.511" xml:space="preserve"><style>svg,svg *{stroke:#e1111a!important;fill:none!important;stroke-width:2.6!important;stroke-linecap:round!important;stroke-linejoin:round!important;vector-effect:non-scaling-stroke!important;color:#e1111a!important;}</style>

<g id="SVGRepo_bgCarrier" stroke-width="2.6"/>

<g id="SVGRepo_tracerCarrier" stroke-linecap="round" stroke-linejoin="round"/>

<g id="SVGRepo_iconCarrier"> <g> <polygon points="13.171,18.386 20.045,10.96 16.692,10.96 16.692,0 9.817,0 9.817,10.773 6.463,10.773 "/> <path d="M25.665,16.907L22.649,4.453c-0.056-0.149-0.203-0.25-0.363-0.25h-3.671v2.589h1.778l1.726,10.083H17.72 c-0.214,0-0.392,0.185-0.392,0.411v3.036c0,0.567-0.439,1.03-0.976,1.03h-6.195c-0.538,0-0.977-0.463-0.977-1.03v-3.036 c0-0.226-0.174-0.411-0.389-0.411H4.438L6.357,6.792h1.375V4.203H4.315c-0.16,0-0.307,0.101-0.365,0.25L0.844,17.049 c-0.015,0.045-0.027,0.091-0.027,0.139v8.931c0,0.218,0.176,0.392,0.391,0.392h24.094c0.215,0,0.391-0.173,0.391-0.392v-9.068 C25.692,17.002,25.681,16.953,25.665,16.907z"/> <g> </g> <g> </g> <g> </g> <g> </g> <g> </g> <g> </g> <g> </g> <g> </g> <g> </g> <g> </g> <g> </g> <g> </g> <g> </g> <g> </g> <g> </g> </g> </g>

</svg>