<svg fill="none" version="1.1" id="Layer_1" xmlns="http://www.w3.org/2000/svg" xmlns:xlink="http://www.w3.org/1999/xlink" viewBox="0 0 512 512" xml:space="preserve"><style>svg,svg *{stroke:#e1111a!important;fill:none!important;stroke-width:2.6!important;stroke-linecap:round!important;stroke-linejoin:round!important;vector-effect:non-scaling-stroke!important;color:#e1111a!important;}</style>

<g id="SVGRepo_bgCarrier" stroke-width="2.6"/>

<g id="SVGRepo_tracerCarrier" stroke-linecap="round" stroke-linejoin="round"/>

<g id="SVGRepo_iconCarrier"> <g> <g> <circle cx="177.06" cy="110.865" r="17.378"/> </g> </g> <g> <g> <circle cx="145.724" cy="409.47" r="17.378"/> </g> </g> <g> <g> <circle cx="427.396" cy="273.383" r="17.378"/> </g> </g> <g> <g> <circle cx="403.495" cy="156.618" r="17.378"/> </g> </g> <g> <g> <circle cx="259.331" cy="426.855" r="17.378"/> </g> </g> <g> <g> <circle cx="76.599" cy="245.556" r="17.378"/> </g> </g> <g> <g> <circle cx="373.303" cy="377.392" r="17.378"/> </g> </g> <g> <g> <circle cx="294.051" cy="93.493" r="17.378"/> </g> </g> <g> <g> <path d="M380.848,179.959c0-13.099-5.192-25.324-14.619-34.422c-9.425-9.095-21.797-13.84-34.909-13.385 c-25.858,0.918-46.078,22.222-46.078,48.501v79.693c0,9.491-5.678,18.085-14.411,21.893 c-17.222,7.509-28.369,24.652-28.369,43.677c0,16.257,8.13,31.254,21.763,40.119c7.906,5.14,16.942,7.753,26.041,7.753 c6.578,0,13.184-1.366,19.412-4.13c43.235-19.192,71.17-62.099,71.17-109.312L380.848,179.959L380.848,179.959z M343.108,260.345 c0,32.306-19.134,61.673-48.744,74.818c-4.504,1.996-8.197,0.13-9.576-0.769c-1.385-0.901-4.604-3.529-4.604-8.479 c0-4.01,2.269-7.574,5.729-9.083c22.498-9.808,37.069-31.981,37.069-56.487v-79.693c0-5.756,4.324-10.596,9.678-10.786 c0.13-0.004,0.239-0.006,0.366-0.006c3.539,0,5.892,1.756,7.003,2.83c1.154,1.113,3.08,3.537,3.08,7.267V260.345z"/> </g> </g> <g> <g> <path d="M228.273,145.966c-13.623-8.855-30.614-10.21-45.459-3.623c-43.235,19.192-71.172,62.099-71.172,109.312v80.386 c0,13.099,5.192,25.324,14.619,34.422c9.003,8.69,20.73,13.416,33.189,13.416c0.582,0,1.135-0.011,1.72-0.031 c25.858-0.918,46.078-22.222,46.078-48.501v-79.693c0-9.491,5.679-18.085,14.411-21.893c17.222-7.509,28.369-24.652,28.369-43.677 C250.027,169.829,241.906,154.831,228.273,145.966z M206.577,195.168c-22.498,9.808-37.069,31.981-37.069,56.487v79.693 c0,5.756-4.324,10.596-9.678,10.786c-3.747,0.106-6.227-1.712-7.378-2.824c-1.154-1.113-3.071-3.537-3.071-7.267v-80.386 c0-32.306,19.134-61.673,48.744-74.818c1.459-0.648,2.833-0.888,4.071-0.888c2.583,0,4.573,1.05,5.505,1.657 c1.385,0.901,4.587,3.529,4.587,8.479C212.288,190.095,210.036,193.66,206.577,195.168z"/> </g> </g> <g> <g> <path d="M256,0C114.842,0,0,114.842,0,256s114.842,256,256,256s256-114.842,256-256S397.158,0,256,0z M256,474.261 c-120.349,0-218.261-97.912-218.261-218.261S135.651,37.739,256,37.739S474.261,135.651,474.261,256S376.349,474.261,256,474.261z "/> </g> </g> </g>

</svg>