<svg version="1.1" id="Capa_1" xmlns="http://www.w3.org/2000/svg" xmlns:xlink="http://www.w3.org/1999/xlink" viewBox="0 0 276.685 276.685" xml:space="preserve" fill="none"><style>svg,svg *{stroke:#e1111a!important;fill:none!important;stroke-width:2.6!important;stroke-linecap:round!important;stroke-linejoin:round!important;vector-effect:non-scaling-stroke!important;color:#e1111a!important;}</style>

<g id="SVGRepo_bgCarrier" stroke-width="2.6"/>

<g id="SVGRepo_tracerCarrier" stroke-linecap="round" stroke-linejoin="round"/>

<g id="SVGRepo_iconCarrier"> <g> <g> <path style="fill:#e1111a;" d="M270.938,196.301c1.452-8.528-0.506-17.111-5.515-24.166l-33.51-47.26 c-6.396-9.023-12.499-10.916-16.491-10.916c-3.285,0-11.275,1.42-14.305,14.56c-3.394,14.626,0.044,34.685,7.832,45.672 l9.323,13.152l-27.397,19.423l-7.767-10.949c-3.802-5.363-7.985-6.489-10.824-6.489c-7.316,0-13.195,6.984-16.132,19.162 l-7.071,29.306c-2.067,8.545-0.56,16.975,4.232,23.736c4.797,6.761,12.249,10.971,20.995,11.852l29.996,3.03 c1.844,0.185,3.584,0.272,5.211,0.272c8.964,0,15.316-2.741,17.889-7.723c1.197-2.306,2.54-7.093-1.828-13.25l-7.364-10.394 l39.531-28.027C264.797,212.287,269.486,204.835,270.938,196.301z M251.45,208.414l-43.969,31.171 c-1.18,0.832-1.974,2.105-2.214,3.525c-0.245,1.425,0.092,2.883,0.925,4.063l10.525,14.843c0.908,1.284,0.99,1.953,1.028,1.964 c-0.31,0.419-2.48,1.833-8.224,1.833c-1.284,0-2.66-0.071-4.117-0.223l-29.996-3.03c-5.575-0.56-10.269-3.16-13.217-7.321 c-2.948-4.155-3.851-9.448-2.54-14.892l7.071-29.306c1.898-7.854,4.759-10.693,5.537-10.84c0.185,0.033,0.952,0.457,1.974,1.898 l10.916,15.393c1.74,2.442,5.14,3.024,7.582,1.289l36.268-25.716c2.453-1.741,3.03-5.134,1.289-7.582l-12.466-17.59 c-5.994-8.458-8.79-25.368-6.108-36.931c0.843-3.671,2.339-6.135,3.709-6.135c1.447,0,4.308,1.659,7.62,6.331l33.51,47.265 c3.318,4.683,4.623,10.389,3.66,16.051C259.249,200.141,256.133,205.091,251.45,208.414z"/> <path style="fill:#e1111a;" d="M24.918,243.616l53.254,22.822c4.286,1.833,8.257,2.763,11.781,2.763 c4.95,0,9.045-1.893,11.525-5.336c2.061-2.866,3.927-8.077,1.066-16.627c-4.748-14.25-18.161-29.561-30.529-34.854l-14.821-6.353 l13.228-30.872l12.341,5.287c6.5,2.785,12.445,1.517,15.768-3.051c3.47-4.765,3.682-12.319,0.598-21.832l-9.268-28.691 c-3.976-12.309-14.555-20.266-26.94-20.266c-4.482,0-8.915,1.039-13.168,3.084L22.59,122.771 c-10.351,4.993-15.98,11.34-15.833,17.884c0.065,2.73,1.246,7.767,8.501,10.873l11.716,5.026l-19.08,44.54 C0.867,217.503,8.498,236.578,24.918,243.616z M17.896,205.374l21.218-49.539c1.186-2.758-0.098-5.956-2.856-7.136l-16.714-7.169 c-1.425-0.609-1.855-1.131-1.904-1.131c-0.005,0-0.005,0-0.005,0c0.065-0.696,1.898-4.068,9.676-7.821l27.157-13.076 c2.768-1.333,5.613-2.012,8.452-2.012c7.696,0,14.055,4.879,16.595,12.733l9.268,28.691c2.48,7.685,1.523,11.596,0.625,12.156 c-0.337,0-1.104-0.082-2.371-0.626l-17.34-7.424c-2.741-1.169-5.961,0.098-7.136,2.861L45.054,206.75 c-1.186,2.758,0.098,5.956,2.856,7.136l19.82,8.496c9.524,4.079,20.739,17.035,24.498,28.299c1.246,3.737,1.006,6.01,0.419,6.821 c-0.517,0.713-1.915,0.816-2.698,0.816c-1.409,0-3.851-0.326-7.5-1.887l-53.254-22.817 C18.299,228.941,13.224,216.274,17.896,205.374z"/> <path style="fill:#e1111a;" d="M138.714,98.795c2.671,5.608,9.845,8.692,20.19,8.692c0.631,0,1.278-0.011,1.942-0.033 l30.127-1.061c8.79-0.31,16.508-4.03,21.734-10.465c5.221-6.434,7.272-14.745,5.771-23.399l-5.14-29.708 c-2.219-12.814-8.023-20.467-15.512-20.467c-2.573,0-6.418,0.963-10.133,5.537l-8.039,9.899L142.032,7.245 C136.278,2.573,129.033,0,121.636,0c-9.818,0-18.988,4.368-25.167,11.977L59.946,56.958c-8.36,10.302-6.935,17.454-5.341,20.804 c1.474,3.1,5.896,8.447,17.128,7.887c15.012-0.664,33.412-9.372,41.886-19.82l10.16-12.515l26.075,21.169l-8.463,10.421 C136.294,91.18,137.523,96.304,138.714,98.795z M149.843,91.746l11.895-14.637c0.908-1.12,1.338-2.556,1.191-3.992 c-0.147-1.436-0.865-2.752-1.985-3.66l-34.522-28.027c-1.006-0.816-2.219-1.218-3.421-1.218c-1.583,0-3.155,0.685-4.226,2.012 l-13.592,16.741c-6.527,8.044-22.066,15.284-33.923,15.806l-1.017,0.022c-3.448,0-5.401-0.865-5.809-1.719 c-0.451-0.957-0.212-4.123,3.965-9.274l36.523-44.981c4.106-5.053,10.198-7.952,16.72-7.952c4.982,0,9.665,1.664,13.538,4.814 l41.837,33.978c2.344,1.893,5.771,1.528,7.653-0.794l11.466-14.12c0.995-1.224,1.615-1.474,1.61-1.517 c0.653,0.245,3.394,2.932,4.873,11.444l5.14,29.708c0.957,5.515-0.283,10.731-3.497,14.691c-3.214,3.96-8.066,6.249-13.674,6.451 l-30.127,1.061c-8.572,0.305-11.678-1.936-11.917-2.415C148.526,93.971,148.722,93.122,149.843,91.746z"/> </g> </g> </g>

</svg>