<svg fill="none" version="1.1" id="Capa_1" xmlns="http://www.w3.org/2000/svg" xmlns:xlink="http://www.w3.org/1999/xlink" viewBox="0 0 48.118 48.117" xml:space="preserve"><style>svg,svg *{stroke:#e1111a!important;fill:none!important;stroke-width:2.6!important;stroke-linecap:round!important;stroke-linejoin:round!important;vector-effect:non-scaling-stroke!important;color:#e1111a!important;}</style>

<g id="SVGRepo_bgCarrier" stroke-width="2.6"/>

<g id="SVGRepo_tracerCarrier" stroke-linecap="round" stroke-linejoin="round"/>

<g id="SVGRepo_iconCarrier"> <g> <path d="M42.35,6.81l-0.51-1.306L40.448,5.34c-5.855-0.689-11.12-2.302-15.223-4.668L24.06,0l-1.165,0.672 C18.791,3.038,13.529,4.651,7.672,5.34L6.279,5.504L5.77,6.81c-1.568,4.027-2.398,8.587-2.398,13.183 c0,25.167,20.188,28.053,20.391,28.08l0.36,0.045l0.357-0.064c0.211-0.04,5.22-0.99,10.206-4.951 c4.59-3.642,10.06-10.605,10.06-23.108C44.747,15.397,43.918,10.838,42.35,6.81z M40.084,19.993c0,0.652-0.021,1.284-0.054,1.901 H26.393V6.456c3.582,1.561,7.67,2.695,12.074,3.329C39.528,12.956,40.084,16.454,40.084,19.993z M9.654,9.785 c4.406-0.634,8.494-1.769,12.075-3.329v15.438H8.085c-0.03-0.617-0.048-1.249-0.048-1.901C8.037,16.454,8.594,12.956,9.654,9.785z M8.62,26.557h13.109v16.202C17.803,41.391,10.695,37.445,8.62,26.557z M26.393,42.607V26.557h13.051 C37.311,36.846,30.338,41.033,26.393,42.607z"/> </g> </g>

</svg>