<svg fill="none" version="1.1" id="Layer_1" xmlns="http://www.w3.org/2000/svg" xmlns:xlink="http://www.w3.org/1999/xlink" viewBox="0 0 512.06 512.06" xml:space="preserve" stroke="#e1111a" stroke-width="2.6"><style>svg,svg *{stroke:#e1111a!important;fill:none!important;stroke-width:2.6!important;stroke-linecap:round!important;stroke-linejoin:round!important;vector-effect:non-scaling-stroke!important;color:#e1111a!important;}</style>

<g id="SVGRepo_bgCarrier" stroke-width="2.6"/>

<g id="SVGRepo_tracerCarrier" stroke-linecap="round" stroke-linejoin="round"/>

<g id="SVGRepo_iconCarrier"> <g transform="translate(1)"> <g> <path d="M511.044,301.576c-0.068-3.54-1.009-7.112-2.932-10.384l-15.105-25.687c-0.293-0.498-0.63-0.952-1-1.366l-98.369-167.24 c-2.847-4.875-6.509-9.219-10.834-12.852c-8.886-7.462-20.105-11.548-31.703-11.548h-2.195c-0.009,0-0.017-0.002-0.025-0.002 h-27.488c-7.23-15.857-34.534-25.6-66.379-25.6c-31.845,0-59.149,9.743-66.379,25.6h-27.484c-0.008,0-0.016,0.002-0.025,0.002 h-2.205c-11.595,0-22.823,4.09-31.697,11.55c-4.326,3.634-7.991,7.983-10.839,12.864L18.328,264.828 c-0.368,0.415-0.7,0.871-0.99,1.367L1.739,292.912c-1.799,3.078-2.672,6.437-2.725,9.763c-0.229,7.143,3.379,14.182,10.003,18.007 l24.456,14.122c9.53,5.501,21.708,2.289,27.283-7.196l57.725-98.286l-0.015,184.509c0,3.316,1.92,6.331,4.924,7.733l58.82,27.452 c46.141,21.531,99.446,21.531,145.577,0l58.82-27.452c3.004-1.402,4.924-4.417,4.924-7.732l0.015-184.814l58.278,98.145 c5.591,9.428,17.73,12.597,27.229,7.112l23.338-13.474C507.466,316.72,511.308,309.2,511.044,301.576z M493.404,300.176 c0.398,0.677,0.569,1.419,0.569,2.151c-0.104,1.352-0.845,2.631-2.107,3.359l-23.35,13.484c-1.397,0.806-3.195,0.336-4.018-1.051 l-10.652-17.942l28.786-18.313L493.404,300.176z M191.41,89.565l27.849,31.827l-13.956,14.202l-28.757-46.029H191.41z M244.513,150.254l4.079,4.662c0.213,0.243,0.436,0.471,0.668,0.683c3.478,3.188,8.99,2.961,12.178-0.682l4.052-4.631 l14.853,209.063l-25.345,25.345l-25.345-25.345L244.513,150.254z M318.621,89.565h15.756l-29.232,52.617l-15.029-20.04 L318.621,89.565z M216.138,70.771c10-4.285,23.915-6.808,38.877-6.808s28.877,2.522,38.877,6.808 c6.19,2.653,9.98,5.561,11.523,7.967l-32.698,37.368c-0.004,0.005-0.008,0.01-0.012,0.015l-6.554,7.49 c-0.007,0.008-0.016,0.014-0.023,0.022l-11.114,12.704l-17.647-20.168c-0.018-0.02-0.032-0.042-0.05-0.063l-32.7-37.371 C206.16,76.33,209.95,73.422,216.138,70.771z M46.039,318.629c-0.821,1.401-2.621,1.875-4.022,1.065l-24.47-14.125 c-0.871-0.503-1.384-1.381-1.462-2.31c0.012-0.481,0.128-0.964,0.387-1.408l11.623-19.904l30.125,15.949L46.039,318.629z M390.353,193.581c-4.429-7.459-15.87-4.319-15.871,4.356l-0.017,210.459l-53.896,25.154c-41.557,19.395-89.577,19.395-131.142,0 l-53.895-25.153l0.017-210.458c0.001-8.697-11.487-11.822-15.891-4.322L67.02,283.243l-30.311-16.047l94.416-161.68 c1.861-3.189,4.253-6.027,7.08-8.402c5.175-4.351,11.576-6.942,18.279-7.451l40.08,64.154c2.924,4.681,9.455,5.396,13.324,1.46 l18.496-18.822l-16.032,225.57c-0.175,2.468,0.729,4.89,2.478,6.639l34.133,34.133c3.332,3.332,8.735,3.332,12.068,0 l34.133-34.133c1.749-1.749,2.653-4.171,2.478-6.639l-15.806-222.479l17.551,23.403c3.709,4.946,11.284,4.429,14.286-0.976 l40.162-72.291c6.598,0.561,12.884,3.142,17.993,7.432c2.826,2.374,5.218,5.212,7.077,8.398l95.07,161.631l-28.989,18.442 L390.353,193.581z"/> </g> </g> </g>

</svg>