<svg fill="none" version="1.1" id="Layer_1" xmlns="http://www.w3.org/2000/svg" xmlns:xlink="http://www.w3.org/1999/xlink" viewBox="0 0 512 512" xml:space="preserve"><style>svg,svg *{stroke:#e1111a!important;fill:none!important;stroke-width:2.6!important;stroke-linecap:round!important;stroke-linejoin:round!important;vector-effect:non-scaling-stroke!important;color:#e1111a!important;}</style>

<g id="SVGRepo_bgCarrier" stroke-width="2.6"/>

<g id="SVGRepo_tracerCarrier" stroke-linecap="round" stroke-linejoin="round"/>

<g id="SVGRepo_iconCarrier"> <g> <g> <g> <path d="M428.04,224.391H227.942c-9.024,0-16.34,7.316-16.34,16.34c0,9.024,7.316,16.34,16.34,16.34H428.04 c9.024,0,16.34-7.316,16.34-16.34C444.38,231.707,437.064,224.391,428.04,224.391z"/> <path d="M428.04,274.872H227.942c-9.024,0-16.34,7.316-16.34,16.34c0,9.024,7.316,16.34,16.34,16.34H428.04 c9.024,0,16.34-7.316,16.34-16.34C444.38,282.188,437.064,274.872,428.04,274.872z"/> <path d="M465.553,157.482h-97.532v-41.075c0-25.61-20.835-46.446-46.446-46.446H46.457C20.841,69.961,0,90.797,0,116.407v124.075 c0,23.89,18.132,43.623,41.361,46.168l-14.139,46.745c-4.352,14.384,11.352,26.307,24.003,18.77l92.754-55.256v31.106 c0,25.611,20.835,46.446,46.446,46.446H351.28l109.494,65.235c12.724,7.58,28.338-4.433,24.005-18.766l-14.132-46.747 C493.87,371.639,512,351.904,512,328.015V203.928C512,178.318,491.164,157.482,465.553,157.482z M143.979,203.928v54.94 l-73.276,43.653l8.228-27.201c3.171-10.48-4.684-21.072-15.641-21.072H46.457c-7.597,0-13.776-6.176-13.776-13.765V116.407 c0-7.59,6.18-13.765,13.776-13.765h275.118c7.591,0,13.765,6.176,13.765,13.765v41.075H190.425 C164.814,157.482,143.979,178.318,143.979,203.928z M479.32,328.015h-0.001c0,7.591-6.176,13.765-13.766,13.765H448.72 c-10.949,0-18.81,10.583-15.641,21.068l8.225,27.206l-77.161-45.972c-2.529-1.507-5.42-2.303-8.364-2.303H190.425 c-7.591,0-13.765-6.174-13.765-13.765c0-12.773,0-112.432,0-124.086c0-7.591,6.174-13.765,13.765-13.765 c11.693,0,263.14,0,275.129,0c7.591,0,13.766,6.176,13.766,13.765V328.015z"/> </g> </g> </g> </g>

</svg>