<svg version="1.1" id="Layer_1" xmlns="http://www.w3.org/2000/svg" xmlns:xlink="http://www.w3.org/1999/xlink" viewBox="0 0 512 512" xml:space="preserve" fill="none"><style>svg,svg *{stroke:#e1111a!important;fill:none!important;stroke-width:2.6!important;stroke-linecap:round!important;stroke-linejoin:round!important;vector-effect:non-scaling-stroke!important;color:#e1111a!important;}</style>

<g id="SVGRepo_bgCarrier" stroke-width="2.6"/>

<g id="SVGRepo_tracerCarrier" stroke-linecap="round" stroke-linejoin="round"/>

<g id="SVGRepo_iconCarrier"> <circle style="fill:#FFF;" cx="247.921" cy="210.215" r="166.992"/> <path style="fill:#FFFA7A9AC;" d="M447.232,167.118v16.161c0,5.924-4.851,10.773-10.775,10.773H414.91h-53.868h-21.547 c-5.924,0-10.775-4.85-10.775-10.773v-16.161c0-5.924,4.85-10.773,10.775-10.773h96.961 C442.38,156.344,447.232,161.194,447.232,167.118z"/> <g> <rect x="312.564" y="441.839" style="fill:#FFFE6E7E8;" width="150.826" height="59.258"/> <polygon style="fill:#FFFE6E7E8;" points="361.042,247.92 361.042,194.052 414.91,194.052 414.91,247.92 463.391,247.92 463.391,301.787 312.562,301.787 312.562,247.92 "/> </g> <rect x="312.564" y="301.783" style="fill:#FFFF4661E;" width="150.826" height="140.056"/> <path style="fill:#FFFFFD248;" d="M220.986,70.154c20.789,0,37.708,16.918,37.708,37.709c0,20.789-16.918,37.708-37.708,37.708 s-37.708-16.918-37.708-37.708C183.278,87.073,200.196,70.154,220.986,70.154z"/> <g> <path style="fill:#FFF231F20;" d="M59.51,210.211c0-103.89,84.52-188.409,188.411-188.409c70.704,0,134.866,39.028,167.446,101.853 l19.354-10.037C398.376,43.536,326.799,0,247.92,0C191.753,0,138.958,21.861,99.263,61.556s-61.556,92.488-61.556,148.656 c0,56.163,21.861,108.956,61.556,148.652c39.696,39.697,92.491,61.56,148.657,61.56v-21.802 c-56.436,0-107.148-24.948-141.707-64.387h179.415v-21.802H89.724C70.62,282.97,59.51,247.866,59.51,210.211z"/> <path style="fill:#FFF231F20;" d="M463.391,237.019h-37.58v-32.066h10.646c11.952,0,21.676-9.723,21.676-21.674v-16.161 c0-11.952-9.724-21.674-21.676-21.674h-96.961c-11.952,0-21.676,9.723-21.676,21.674v16.161c0,11.952,9.724,21.674,21.676,21.674 h10.646v32.066h-37.58c-6.02,0-10.901,4.881-10.901,10.901v253.179c0,6.02,4.881,10.901,10.901,10.901h150.829 c6.021,0,10.901-4.881,10.901-10.901V247.92C474.292,241.9,469.411,237.019,463.391,237.019z M339.623,167.245h96.708l0.025,15.906 h-96.733V167.245z M361.042,258.821h26.934v-21.802h-16.033v-32.066h32.066v42.967c0,6.02,4.881,10.901,10.901,10.901h37.58v32.065 H323.463v-32.065L361.042,258.821L361.042,258.821z M452.49,312.688v118.254H323.463V312.688H452.49z M323.463,490.198v-37.453 H452.49v37.453H323.463z"/> <path style="fill:#FFF231F20;" d="M102.349,194.052v86.189c0,6.02,4.88,10.901,10.901,10.901h64.642 c6.021,0,10.901-4.881,10.901-10.901v-86.189h-21.802v75.288h-42.84v-75.288H102.349z"/> <path style="fill:#FFF231F20;" d="M242.533,291.142c4.544,0,8.612-2.819,10.207-7.074l32.32-86.189l-20.414-7.656l-22.114,58.971 l-22.114-58.971l-20.414,7.656l32.32,86.189C233.921,288.323,237.989,291.142,242.533,291.142z"/> <path style="fill:#FFF231F20;" d="M262.172,82.093l9.616-9.616L256.371,57.06l-9.616,9.616c-4.514-2.835-9.524-4.945-14.869-6.174 v-17.28h-21.802v17.28c-5.345,1.23-10.355,3.339-14.869,6.174l-9.616-9.616l-15.417,15.417l9.616,9.616 c-2.834,4.515-4.944,9.524-6.174,14.87h-17.281v21.802h17.281c1.23,5.345,3.339,10.354,6.174,14.869l-9.616,9.616l15.417,15.417 l9.616-9.616c4.514,2.835,9.524,4.944,14.869,6.174v17.28h21.802v-17.28c5.345-1.231,10.355-3.34,14.869-6.174l9.616,9.616 l15.417-15.417l-9.615-9.616c2.834-4.515,4.944-9.523,6.173-14.869h17.28V96.963h-17.28 C267.117,91.617,265.006,86.607,262.172,82.093z M220.986,134.67c-14.782,0-26.807-12.025-26.807-26.807 s12.025-26.808,26.807-26.808s26.807,12.026,26.807,26.808S235.767,134.67,220.986,134.67z"/> <rect x="414.914" y="393.232" style="fill:#FFF231F20;" width="21.547" height="21.802"/> <rect x="382.592" y="393.232" style="fill:#FFF231F20;" width="21.547" height="21.802"/> <rect x="371.811" y="360.91" style="fill:#FFF231F20;" width="64.643" height="21.802"/> </g> </g>

</svg>