<svg fill="none" version="1.1" id="Capa_1" xmlns="http://www.w3.org/2000/svg" xmlns:xlink="http://www.w3.org/1999/xlink" viewBox="0 0 470 470" xml:space="preserve" stroke="#e1111a" stroke-width="2.6"><style>svg,svg *{stroke:#e1111a!important;fill:none!important;stroke-width:2.6!important;stroke-linecap:round!important;stroke-linejoin:round!important;vector-effect:non-scaling-stroke!important;color:#e1111a!important;}</style>

<g id="SVGRepo_bgCarrier" stroke-width="2.6"/>

<g id="SVGRepo_tracerCarrier" stroke-linecap="round" stroke-linejoin="round"/>

<g id="SVGRepo_iconCarrier"> <g> <path d="M425.959,251.508l-84.684-90.471c-5.891-6.293-16.737-12.152-25.229-13.629l-26.132-4.544 c15.023-21.645,22.602-43.506,22.602-65.346C312.518,34.774,277.743,0,235,0s-77.517,34.774-77.517,77.518 c0,21.839,7.579,43.7,22.602,65.346l-26.131,4.544c-8.493,1.477-19.339,7.336-25.229,13.629l-84.684,90.471 c-4.429,4.731-7.769,13.187-7.769,19.667v114.429c0,8.135,4.992,15.122,12.071,18.071v19c0,4.142,3.358,7.5,7.5,7.5h32.235 c4.142,0,7.5-3.358,7.5-7.5v-19c7.079-2.949,12.071-9.936,12.071-18.071v-88.584l21.782-22.949v151.357 c0,8.135,4.992,15.122,12.071,18.071v19c0,4.142,3.358,7.5,7.5,7.5h171.992c4.143,0,7.5-3.358,7.5-7.5v-19 c7.08-2.949,12.071-9.936,12.071-18.072V274.072l21.782,22.949v88.584c0,8.135,4.992,15.122,12.071,18.072v19 c0,4.142,3.357,7.5,7.5,7.5h32.235c4.143,0,7.5-3.358,7.5-7.5v-19c7.08-2.949,12.071-9.936,12.071-18.072V271.175 C433.728,264.694,430.388,256.239,425.959,251.508z M63.344,415.176v-10h17.235v10H63.344z M156.504,455v-10h156.992v10H156.504z M338.507,250.112c-2.111-2.226-5.368-2.94-8.219-1.803s-4.721,3.896-4.721,6.966v170.153c0,2.521-2.051,4.571-4.571,4.571H149.004 c-2.521,0-4.571-2.051-4.571-4.571V255.275c0-3.069-1.87-5.829-4.721-6.966c-2.849-1.138-6.105-0.424-8.219,1.803l-23.842,25.119 V262.77c0-4.142-3.358-7.5-7.5-7.5s-7.5,3.358-7.5,7.5v122.834c0,2.521-2.051,4.571-4.571,4.571H55.844 c-2.521,0-4.571-2.051-4.571-4.571V271.175c0-2.696,1.877-7.448,3.72-9.417l84.684-90.471c3.611-3.858,11.642-8.196,16.848-9.102 l33.871-5.89c0.327,0.389,0.662,0.778,0.994,1.167V255c0,4.142,3.358,7.5,7.5,7.5s7.5-3.358,7.5-7.5v-81.603 c2.762,2.681,5.626,5.357,8.62,8.027c1.43,1.276,3.213,1.903,4.99,1.903c2.063,0,4.118-0.847,5.6-2.508 c2.757-3.091,2.486-7.833-0.605-10.589c-34.843-31.076-52.51-62.269-52.51-92.712C172.483,43.045,200.528,15,235,15 c34.473,0,62.518,28.045,62.518,62.518c0,30.443-17.666,61.636-52.509,92.711c-3.091,2.757-3.362,7.498-0.605,10.589 c2.759,3.09,7.498,3.362,10.59,0.605c2.993-2.67,5.857-5.346,8.619-8.027V255c0,4.142,3.357,7.5,7.5,7.5s7.5-3.358,7.5-7.5v-97.538 c0.332-0.389,0.667-0.777,0.993-1.166l33.871,5.89c5.206,0.905,13.236,5.243,16.848,9.102l84.684,90.471 c1.843,1.968,3.72,6.721,3.72,9.417v114.429c0,2.521-2.051,4.571-4.571,4.571h-32.235c-2.521,0-4.571-2.051-4.571-4.571V262.77 c0-4.142-3.357-7.5-7.5-7.5s-7.5,3.358-7.5,7.5v12.462L338.507,250.112z M389.421,415.176v-10h17.235v10H389.421z"/> <path d="M235,163.196c1.805,0,3.609-0.648,5.039-1.945c31.504-28.575,47.479-56.748,47.479-83.734 C287.518,48.559,263.958,25,235,25c-28.958,0-52.518,23.559-52.518,52.518c0,26.986,15.974,55.158,47.479,83.734 C231.391,162.548,233.195,163.196,235,163.196z M197.482,77.518C197.482,56.83,214.313,40,235,40s37.518,16.83,37.518,37.518 c0,25.72-19.358,50.412-37.518,67.914C216.841,127.929,197.482,103.237,197.482,77.518z"/> <path d="M303.068,370.141c-16.267,0-29.5-13.233-29.5-29.5c0-4.142-3.357-7.5-7.5-7.5h-62.136c-4.142,0-7.5,3.358-7.5,7.5 c0,16.267-13.233,29.5-29.5,29.5c-4.142,0-7.5,3.358-7.5,7.5V407.5c0,4.142,3.358,7.5,7.5,7.5s7.5-3.358,7.5-7.5v-22.992 c18.541-3.159,33.208-17.827,36.368-36.368h48.4c3.16,18.541,17.827,33.208,36.368,36.368V407.5c0,4.142,3.357,7.5,7.5,7.5 s7.5-3.358,7.5-7.5v-29.859C310.568,373.499,307.211,370.141,303.068,370.141z"/> </g> </g>

</svg>